<?xml version="1.0" encoding="utf-8"?>
<!-- Generator: Adobe Illustrator 18.0.0, SVG Export Plug-In . SVG Version: 6.00 Build 0)  -->
<!DOCTYPE svg PUBLIC "-//W3C//DTD SVG 1.1//EN" "http://www.w3.org/Graphics/SVG/1.1/DTD/svg11.dtd">
<svg version="1.1" id="Camada_1" xmlns="http://www.w3.org/2000/svg" xmlns:xlink="http://www.w3.org/1999/xlink" x="0px" y="0px"
	 viewBox="0 0 841.9 595.3" enable-background="new 0 0 841.9 595.3" xml:space="preserve">
<path fill="#FFFFFF" d="M487.9,297.6l128-128c17.9-17.9,17.9-49.1,0-67c-17.9-17.9-49.1-17.9-67,0l-128,128l-128-128
	c-17.9-17.9-49.1-17.9-67,0s-17.9,49.1,0,67l128,128l-128,128c-17.9,17.9-17.9,49.1,0,67c17.9,17.9,49.1,17.9,67,0l128-128l128,128
	c17.9,17.9,49.1,17.9,67,0s17.9-49.1,0-67L487.9,297.6z"/>
</svg>
